<svg width="429" height="266" viewBox="0 0 429 266" fill="none" xmlns="http://www.w3.org/2000/svg">
<path d="M76 77C77.2642 81.6354 85.1173 86.8025 88 90.1111C103.378 107.761 116.979 127.167 129.889 146.667C138.155 159.152 150 173.215 150 189" stroke="black" stroke-width="3" stroke-linecap="round"/>
<path d="M2 155C5.83042 154.652 9.58738 153.345 13.3333 152.556C34.88 148.015 56.7067 144.954 78.2222 140.222C118.942 131.267 159.023 119.355 197.111 102.222C213.64 94.7876 235.217 83.4758 250.667 73.6667C265.991 63.937 282.613 52.252 293 36.9444C298.658 28.6061 299.871 19.9992 294.278 11.4444C291.579 7.31675 286.222 1.8566 280.778 1.66667C273.992 1.42997 269.408 10.5286 267.556 15.5556C253.684 53.1939 264.796 96.4692 284.444 129.778C305.254 165.054 336.18 191.846 367.556 217.333C372.63 221.455 405.796 241.928 399.389 253.556C396.025 259.661 386.109 261.273 380.778 262.222C364.792 265.069 351.194 264.823 334.778 263.556C286.709 259.844 238.941 247.088 193.778 230.556C185.343 227.468 163.107 221.908 170.556 216.889C173.773 214.721 187.198 210.43 188.889 209.889C212.995 202.175 237.299 195.556 261 186.556C303.972 170.237 345.51 149.604 384.778 125.722C400.034 116.444 415.511 106.787 427 93" stroke="black" stroke-width="3" stroke-linecap="round"/>
<path d="M350 42C350 47.3204 350.867 43.8434 353 41" stroke="black" stroke-width="3" stroke-linecap="round"/>
</svg>
